<?xml version="1.0" encoding="UTF-8" standalone="no"?>
<!-- Created with Inkscape (http://www.inkscape.org/) -->

<svg
   width="210mm"
   height="297mm"
   viewBox="0 0 210 297"
   version="1.1"
   id="svg5"
   xml:space="preserve"
   inkscape:version="1.2.2 (732a01da63, 2022-12-09)"
   sodipodi:docname="Logo-PacShop-v1-CaixaComSombraf.svg"
   xmlns:inkscape="http://www.inkscape.org/namespaces/inkscape"
   xmlns:sodipodi="http://sodipodi.sourceforge.net/DTD/sodipodi-0.dtd"
   xmlns="http://www.w3.org/2000/svg"
   xmlns:svg="http://www.w3.org/2000/svg"><sodipodi:namedview
     id="namedview7"
     pagecolor="#ffffff"
     bordercolor="#000000"
     borderopacity="0.25"
     inkscape:showpageshadow="2"
     inkscape:pageopacity="0.0"
     inkscape:pagecheckerboard="0"
     inkscape:deskcolor="#d1d1d1"
     inkscape:document-units="mm"
     showgrid="false"
     inkscape:zoom="1"
     inkscape:cx="323.5"
     inkscape:cy="582.5"
     inkscape:window-width="1280"
     inkscape:window-height="961"
     inkscape:window-x="-8"
     inkscape:window-y="-8"
     inkscape:window-maximized="1"
     inkscape:current-layer="layer1" /><defs
     id="defs2"><inkscape:path-effect
       effect="skeletal"
       id="path-effect26456"
       is_visible="true"
       lpeversion="1"
       pattern="M 0,4.9921382 C 0,2.2364779 2.2364779,0 4.9921382,0 c 2.7556604,0 4.9921383,2.2364779 4.9921383,4.9921382 0,2.7556604 -2.2364779,4.9921383 -4.9921383,4.9921383 C 2.2364779,9.9842765 0,7.7477986 0,4.9921382 Z"
       copytype="single_stretched"
       prop_scale="1"
       scale_y_rel="false"
       spacing="0"
       normal_offset="0"
       tang_offset="0"
       prop_units="false"
       vertical_pattern="false"
       hide_knot="false"
       fuse_tolerance="0" /><inkscape:path-effect
       effect="skeletal"
       id="path-effect21895"
       is_visible="true"
       lpeversion="1"
       pattern="M 0,4.9921382 C 0,2.2364779 2.2364779,0 4.9921382,0 c 2.7556604,0 4.9921383,2.2364779 4.9921383,4.9921382 0,2.7556604 -2.2364779,4.9921383 -4.9921383,4.9921383 C 2.2364779,9.9842765 0,7.7477986 0,4.9921382 Z"
       copytype="single_stretched"
       prop_scale="1"
       scale_y_rel="false"
       spacing="0"
       normal_offset="0"
       tang_offset="0"
       prop_units="false"
       vertical_pattern="false"
       hide_knot="false"
       fuse_tolerance="0" /><inkscape:path-effect
       effect="skeletal"
       id="path-effect20439"
       is_visible="true"
       lpeversion="1"
       pattern="M 0,4.9921382 C 0,2.2364779 2.2364779,0 4.9921382,0 c 2.7556604,0 4.9921383,2.2364779 4.9921383,4.9921382 0,2.7556604 -2.2364779,4.9921383 -4.9921383,4.9921383 C 2.2364779,9.9842765 0,7.7477986 0,4.9921382 Z"
       copytype="single_stretched"
       prop_scale="1"
       scale_y_rel="false"
       spacing="0"
       normal_offset="0"
       tang_offset="0"
       prop_units="false"
       vertical_pattern="false"
       hide_knot="false"
       fuse_tolerance="0" /><filter
       inkscape:collect="always"
       style="color-interpolation-filters:sRGB"
       id="filter71001"
       x="-0.03440582"
       y="-0.13418581"
       width="1.0688116"
       height="1.2683716"><feGaussianBlur
         inkscape:collect="always"
         stdDeviation="0.52544199"
         id="feGaussianBlur71003" /></filter></defs><g
     inkscape:label="Sketch"
     inkscape:groupmode="layer"
     id="layer1"
     style="display:inline"
     transform="matrix(-1,0,0,1,211.45893,0)"><path
       id="rect31600"
       style="display:inline;opacity:1;fill:#330b49;fill-opacity:1;stroke:none;stroke-width:0.307763"
       inkscape:label="Contornos/Borda "
       d="m 106.65551,78.255172 c -2.03497,10e-7 -3.68453,1.587346 -3.68453,3.54552 0,1.958173 1.64956,3.545518 3.68453,3.54552 2.03495,4e-6 3.68504,-1.587343 3.68504,-3.54552 0,-1.958178 -1.65009,-3.545524 -3.68504,-3.54552 z M 80.760962,80.62867 c -2.20724,1.660663 -2.386624,4.267682 -1.758553,6.634737 1.765649,3.898724 3.849622,7.627387 5.910233,11.373466 1.660076,2.764287 4.551367,2.766987 7.026445,1.897507 2.184784,-1.403617 2.380199,-3.853957 2.021582,-6.066294 -2.110642,-4.163498 -4.227063,-8.66752 -6.429582,-12.282972 -1.675905,-2.349288 -4.489223,-2.328227 -6.770125,-1.556444 z m 39.192958,4.445724 c -1.42689,2.44643 -2.50205,5.074243 -3.6773,7.646561 -0.58718,1.378593 -0.77676,2.763026 -0.91105,4.23075 0.3791,2.135771 1.85311,3.643735 3.206,4.907715 7.92132,3.07205 9.53996,-5.959957 11.85406,-11.443233 0.54042,-3.443366 -1.39975,-6.304185 -4.24418,-7.24762 -2.73029,-0.44121 -4.57442,-0.04511 -6.22753,1.905827 z m -57.816628,6.31641 c -2.034963,0 -3.684529,1.587346 -3.684529,3.54552 0,1.958175 1.649566,3.54552 3.684529,3.54552 2.034967,0 3.68453,-1.587345 3.68453,-3.54552 0,-1.958174 -1.649564,-3.54552 -3.68453,-3.54552 z m 79.755858,0.07855 c -2.03497,-4e-6 -3.68453,1.587343 -3.68453,3.54552 0,1.958178 1.64955,3.545524 3.68453,3.54552 2.03497,-10e-7 3.68453,-1.587346 3.68453,-3.54552 0,-1.958173 -1.64956,-3.545518 -3.68453,-3.54552 z m -96.116099,8.179863 c -0.948976,0 -1.718244,0.777773 -1.718242,1.736843 2e-6,0.95906 0.769268,1.73633 1.718242,1.73633 0.948974,0 1.71824,-0.77727 1.718241,-1.73633 2e-6,-0.95907 -0.769265,-1.736843 -1.718241,-1.736843 z m 58.833619,0.786513 c -2.03497,0 -3.68453,1.58734 -3.68453,3.54552 0,1.95818 1.64956,3.54604 3.68453,3.54604 2.03497,0 3.68453,-1.58786 3.68453,-3.54604 0,-1.95818 -1.64956,-3.54552 -3.68453,-3.54552 z m 13.15579,13.88494 c -5.63502,-2.13146 -10.11665,-2.39892 -15.89516,-2.39179 -4.310494,0.0981 -8.279553,1.24522 -12.363585,2.45618 -4.514432,-4.28589 -8.077695,-7.2257 -13.736629,-8.67751 -6.524317,-1.12645 -10.65535,-1.31604 -11.666472,6.02857 -0.03492,2.82818 0.45932,5.45161 1.212846,8.13956 1.567592,4.51271 2.596524,5.97151 5.684924,9.23613 l -3.250447,6.00531 c -2.222206,3.14564 -4.588561,5.29175 -7.124123,8.18597 1.732639,1.75237 3.480645,4.72071 4.760726,6.44748 4.307119,4.73084 7.42332,6.31039 11.917964,7.71604 0.877183,0.27433 2.022915,0.37098 2.981619,0.69252 -5.918461,-0.16188 -10.312128,-0.13653 -16.473414,-0.0509 l -5.694742,0.14417 c -0.807578,0.3491 -1.269936,1.08545 -1.827279,1.73581 -1.044597,1.73504 -2.240097,3.36835 -3.407027,5.0214 l -8.533329,13.60382 c -0.733052,1.02989 -1.307034,1.88899 -1.227319,3.07268 0.227938,0.48554 0.630124,0.71439 1.053166,1.01545 l 16.379362,-0.10232 0.01654,19.65616 c 0.03411,5.11746 -0.112462,10.23692 10e-4,15.35359 0.131606,1.79125 1.475586,3.21697 2.443778,4.32428 1.109593,1.05501 2.621334,1.44447 3.917074,1.63608 l 73.405337,0.0103 c 1.65236,0.0222 3.18865,-0.47888 4.44211,-1.36736 0.96596,-0.86562 1.89149,-1.94209 2.09341,-3.21427 l 0.0754,-7.70237 -0.0207,-28.47475 14.00431,-0.0811 c 0.57649,-0.18883 0.88486,-0.47446 1.23559,-0.91984 0.31289,-1.4113 -0.22979,-2.15379 -0.98346,-3.30936 -1.04342,-1.36721 -2.05681,-2.757 -3.07939,-4.1398 l -7.15719,-9.2444 c -1.60363,-2.27311 -3.43327,-4.71509 -5.0369,-6.9882 -2.21741,-0.17474 -4.43907,-0.14382 -6.66109,-0.14611 -4.44883,0.0185 -8.89764,0.0183 -13.34648,0.0141 4.8921,-0.91881 8.66116,-3.05889 12.438,-5.31492 3.64102,-2.56633 5.90581,-5.26338 8.7204,-8.70851 -4.43399,-5.1453 -7.35575,-9.60732 -10.78642,-14.80375 4.26006,-7.93009 10.50468,-16.74728 4.5102,-23.21534 -6.87438,-3.35637 -18.32762,4.39366 -23.02264,8.35698 z m -63.023031,-9.1653 c -0.948976,0 -1.718241,0.77726 -1.718242,1.73633 10e-7,0.95906 0.769266,1.73632 1.718242,1.73632 0.948973,0 1.71824,-0.77726 1.718241,-1.73632 -10e-7,-0.95907 -0.769268,-1.73633 -1.718241,-1.73633 z m 100.150471,0.0176 c -0.94895,0 -1.71824,0.77778 -1.71824,1.73684 0,0.95907 0.76929,1.73633 1.71824,1.73633 0.94898,0 1.71824,-0.77726 1.71825,-1.73633 -1e-5,-0.95906 -0.76927,-1.73684 -1.71825,-1.73684 z M 54.271623,116.95358 c -2.034966,1e-5 -3.68453,1.58737 -3.68453,3.54552 0,1.95818 1.649564,3.54552 3.68453,3.54552 2.034966,1e-5 3.68453,-1.58734 3.684529,-3.54552 10e-7,-1.95815 -1.649563,-3.54552 -3.684529,-3.54552 z m 98.054477,0.22273 c -2.03497,0 -3.68453,1.58734 -3.68453,3.54552 0,1.95818 1.64956,3.54552 3.68453,3.54552 2.03497,0 3.68453,-1.58734 3.68453,-3.54552 0,-1.95818 -1.64956,-3.54552 -3.68453,-3.54552 z m -1.39957,21.87977 c -1.49924,2.57842 -3.42415,5.63416 -4.69153,8.33389 -0.7283,3.71151 0.34514,4.99788 3.10522,6.31614 1.40196,0.59204 3.45346,0.0189 4.64008,-0.50772 2.23884,-1.01049 3.60761,-3.02043 5.34124,-5.85956 6.4814,-8.44821 -2.71927,-16.82576 -8.39501,-8.28275 z M 49.777323,135.35249 c -2.32961,0.56873 -3.659528,1.59567 -4.567163,3.62097 -0.258723,1.38969 0.0158,2.47185 0.428913,3.76876 2.108653,4.01292 4.569685,7.80753 7.00474,11.62462 1.452133,2.17939 3.939417,2.69713 6.052861,2.63962 4.006089,-0.96008 5.211147,-3.90566 4.670516,-6.89984 -3.243898,-4.77213 -6.13287,-10.65638 -9.226827,-14.0441 -1.494671,-0.84885 -2.721513,-0.80014 -4.36304,-0.71003 z M 177.28737,158.4632 c -0.94898,-1e-5 -1.71824,0.77778 -1.71824,1.73684 -1e-5,0.95907 0.76926,1.73633 1.71824,1.73633 0.94898,0 1.71876,-0.77726 1.71876,-1.73633 0,-0.95906 -0.76979,-1.73684 -1.71876,-1.73684 z m -136.85883,3.87366 c -0.948974,0 -1.71824,0.77778 -1.718241,1.73685 -5e-6,0.95906 0.769263,1.73632 1.718241,1.73632 0.948978,0 1.718246,-0.77726 1.718241,-1.73632 -10e-7,-0.95907 -0.769267,-1.73685 -1.718241,-1.73685 z m 125.2182,0 c -0.94898,0 -1.71824,0.77778 -1.71824,1.73685 -1e-5,0.95906 0.76926,1.73632 1.71824,1.73632 0.94898,10e-6 1.71824,-0.77725 1.71824,-1.73632 0,-0.95907 -0.76927,-1.73685 -1.71824,-1.73685 z m -129.509411,16.5561 c -2.034966,0 -3.68453,1.58734 -3.68453,3.54552 0,1.95816 1.649564,3.54552 3.68453,3.54552 2.034966,0 3.68453,-1.58736 3.68453,-3.54552 0,-1.95818 -1.649564,-3.54552 -3.68453,-3.54552 z m 133.147941,0.10387 c -2.03494,0 -3.68453,1.58734 -3.68453,3.54552 0,1.95815 1.64959,3.54603 3.68453,3.54603 2.03497,0 3.68453,-1.58788 3.68453,-3.54603 0,-1.95818 -1.64956,-3.54552 -3.68453,-3.54552 z m -125.278137,24.8698 c -2.034966,0 -3.68453,1.58734 -3.68453,3.54552 0,1.95815 1.649564,3.54603 3.68453,3.54603 2.034966,0 3.685047,-1.58788 3.685046,-3.54603 10e-7,-1.95818 -1.65008,-3.54552 -3.685046,-3.54552 z m 117.936987,0.29507 c -2.03497,0 -3.68505,1.58734 -3.68505,3.54552 0,1.95818 1.65008,3.54552 3.68505,3.54552 2.03497,0 3.68453,-1.58734 3.68453,-3.54552 0,-1.95818 -1.64956,-3.54552 -3.68453,-3.54552 z m -108.695174,7.17734 c -0.948978,0 -1.718246,0.77726 -1.718241,1.73633 1e-6,0.95906 0.769267,1.73684 1.718241,1.73684 0.948974,0 1.718757,-0.77778 1.718758,-1.73684 5e-6,-0.95907 -0.76978,-1.73633 -1.718758,-1.73633 z"
       sodipodi:nodetypes="sssssccccccccccccccsssssssssscssscssscsscccccccccscccccccccccccccccccccccccccccccsssssscsssccsscccsccccsccccsccccccsssssssssssssssssssssssssssssssssssssssss"
       sodipodi:insensitive="true" /><path
       id="path109253"
       style="display:inline;opacity:1;fill:#f5a216;fill-opacity:1;stroke-width:0.288048;stroke-opacity:0.341176"
       transform="scale(-1,1)"
       d="m -163.86627,164.06659 a 1.7753187,1.7891397 0 0 1 -1.77532,1.78914 1.7753187,1.7891397 0 0 1 -1.77532,-1.78914 1.7753187,1.7891397 0 0 1 1.77532,-1.78914 1.7753187,1.7891397 0 0 1 1.77532,1.78914 z"
       sodipodi:insensitive="true"
       inkscape:label="Laranja1" /><path
       id="path109253-6"
       style="display:inline;opacity:1;fill:#ff0076;fill-opacity:1;stroke-width:0.288048;stroke-opacity:0.341176"
       inkscape:label="Magentas"
       d="m -91.786618,95.173469 c 0.148846,2.988311 3.404042,4.815272 5.633208,1.645407 1.422968,-2.751299 3.591124,-6.674251 4.841038,-9.761921 0.403454,-1.565636 0.682876,-3.654177 -1.454448,-4.578522 -3.426645,-1.143016 -7.948711,9.794948 -9.019798,12.695036 z m 46.017833,4.439572 c -0.980352,1.29e-4 -1.775031,0.801059 -1.775086,1.789039 5.5e-5,0.98798 0.794734,1.78891 1.775086,1.78904 0.980553,1.6e-4 1.775547,-0.80085 1.775602,-1.78904 -5.5e-5,-0.98819 -0.795049,-1.789197 -1.775602,-1.789039 z M -154.8815,105.1419 c -0.98056,-1.6e-4 -1.77556,0.80085 -1.77561,1.78904 5e-5,0.98819 0.79505,1.7892 1.77561,1.78904 0.98035,-1.3e-4 1.77503,-0.80106 1.77508,-1.78904 -5e-5,-0.98798 -0.79473,-1.78891 -1.77508,-1.78904 z m -22.38675,53.26342 c -0.98075,-1.6e-4 -1.77582,0.80116 -1.7756,1.78955 5e-5,0.98819 0.79505,1.7892 1.7756,1.78904 0.98035,-1.3e-4 1.77503,-0.80106 1.77508,-1.78904 2.2e-4,-0.98818 -0.79453,-1.78942 -1.77508,-1.78955 z m 123.992946,52.92287 c -0.98055,-1.6e-4 -1.775542,0.80085 -1.775602,1.78903 -2.3e-4,0.98839 0.794847,1.78972 1.775602,1.78956 0.980553,-1.3e-4 1.775316,-0.80137 1.775086,-1.78956 -6e-5,-0.98798 -0.794738,-1.7889 -1.775086,-1.78903 z"
       transform="scale(-1,1)"
       sodipodi:nodetypes="cccccscscscccccscscsscscs"
       sodipodi:insensitive="true" /><path
       id="path109253-76"
       style="display:inline;opacity:1;fill:#f5a216;fill-opacity:1;stroke-width:0.288048;stroke-opacity:0.341176"
       inkscape:label="Laranjas"
       d="m -54.759451,105.10263 a 1.7753187,1.7891397 0 0 0 -1.775085,1.78904 1.7753187,1.7891397 0 0 0 1.775085,1.78903 1.7753187,1.7891397 0 0 0 1.775086,-1.78903 1.7753187,1.7891397 0 0 0 -1.775086,-1.78904 z m 14.326774,57.16292 a 1.7753187,1.7891397 0 0 0 -1.775085,1.78904 1.7753187,1.7891397 0 0 0 1.775085,1.78903 1.7753187,1.7891397 0 0 0 1.775602,-1.78903 1.7753187,1.7891397 0 0 0 -1.775602,-1.78904 z"
       transform="scale(-1,1)"
       sodipodi:insensitive="true" /><path
       id="path110133"
       style="display:inline;opacity:1;fill:#00b3dc;fill-opacity:1;stroke:none;stroke-width:0.264583;stroke-opacity:0.341176"
       inkscape:label="Isopores Azuis"
       d="m 124.6756,85.459383 c 0.4348,-0.0046 0.88093,0.05671 1.33066,0.180351 2.19807,0.932647 2.30163,3.408528 1.89395,5.004862 -1.27033,3.150059 -2.24548,5.540671 -3.69487,8.348845 -2.12596,2.869839 -6.03831,-0.254315 -6.6058,-2.306319 0.80993,-3.295426 2.44209,-6.806582 3.65921,-9.29349 0.90803,-1.311803 2.11243,-1.920429 3.41685,-1.934249 z m 17.18654,7.323067 c 1.26022,2.02e-4 2.28168,0.969598 2.28152,2.165243 -1.5e-4,1.195443 -1.02151,2.164524 -2.28152,2.164726 -1.26021,6.5e-5 -2.28188,-0.969094 -2.28203,-2.164726 -1.6e-4,-1.195833 1.02161,-2.165308 2.28203,-2.165243 z m -79.70004,0 c 1.260421,-6.6e-5 2.282187,0.969409 2.282031,2.165243 -1.45e-4,1.195632 -1.021823,2.164792 -2.282031,2.164726 -1.260208,6.6e-5 -2.281886,-0.969094 -2.282031,-2.164726 -1.56e-4,-1.195834 1.02161,-2.165309 2.282031,-2.165243 z m 90.17692,25.77155 c 1.26021,-7e-5 2.2819,0.96909 2.28204,2.16473 1.5e-4,1.19584 -1.02162,2.16531 -2.28204,2.16524 -1.26042,7e-5 -2.28218,-0.96941 -2.28203,-2.16524 1.4e-4,-1.19563 1.02182,-2.1648 2.28203,-2.16473 z M 50.727443,137.82934 c 4.045162,0.0211 8.293457,9.29019 10.113554,13.38958 -0.456982,2.4763 -3.805563,4.73152 -6.244551,1.7751 -1.75402,-2.84733 -4.848331,-7.09479 -6.434525,-10.29937 -0.211305,-2.69671 -0.0038,-4.88426 2.565522,-4.86531 z m 111.148987,67.70954 c 1.26022,2.1e-4 2.28166,0.9696 2.28151,2.16524 -1.5e-4,1.19544 -1.02151,2.16451 -2.28151,2.16472 -1.26021,7e-5 -2.28188,-0.96909 -2.28203,-2.16472 -1.5e-4,-1.19583 1.02161,-2.16531 2.28203,-2.16524 z"
       sodipodi:nodetypes="scccccscscsccscsccscscccccccscsc"
       sodipodi:insensitive="true" /><path
       style="display:inline;opacity:1;fill:#fba261;fill-opacity:1;stroke:none;stroke-width:0.264583;stroke-opacity:0.341176"
       d="m 157.40128,138.16068 c 2.19807,0.93265 2.18502,3.3849 1.77734,4.98124 -1.13298,2.73104 -2.89392,4.94388 -4.317,7.24491 -2.24572,2.92316 -8.14103,1.66316 -6.33171,-2.3396 0.80993,-3.29543 3.77214,-6.51096 4.98926,-8.99787 1.45866,-1.52652 2.26171,-1.30033 3.88211,-0.88868 z"
       id="path110133-6"
       sodipodi:nodetypes="cccccc"
       inkscape:label="Big Laranja"
       sodipodi:insensitive="true" /><path
       id="path82207-9"
       style="display:inline;opacity:1;fill:#f311e2;fill-opacity:1;stroke-width:0.245406;stroke-opacity:0.341176"
       inkscape:label="Isopores Pinks"
       d="m -106.59556,79.592558 c -1.26042,-6.5e-5 -2.28219,0.969409 -2.28203,2.165242 1.5e-4,1.195632 1.02182,2.164791 2.28203,2.164726 1.26,-2.07e-4 2.28136,-0.969287 2.28151,-2.164726 1.6e-4,-1.19564 -1.02129,-2.165035 -2.28151,-2.165242 z m 1.96422,22.170222 c -1.26021,-7e-5 -2.28189,0.9691 -2.28203,2.16473 -1.5e-4,1.19583 1.02161,2.16531 2.28203,2.16524 1.26042,7e-5 2.28218,-0.96941 2.28203,-2.16524 -1.4e-4,-1.19563 -1.02182,-2.1648 -2.28203,-2.16473 z m 50.326642,16.69769 c -1.260008,2e-4 -2.11767,0.9459 -2.117812,2.14134 -1.54e-4,1.19565 0.857594,2.16504 2.117812,2.16524 1.26042,7e-5 2.07171,-0.9694 2.071556,-2.16524 -1.43e-4,-1.19563 -0.811346,-2.14141 -2.071556,-2.14134 z m 18.208191,61.81328 c -1.260218,2e-4 -2.281669,0.9696 -2.281515,2.16524 1.43e-4,1.19544 1.021507,2.16453 2.281515,2.16473 1.26021,7e-5 2.281888,-0.9691 2.282031,-2.16473 1.54e-4,-1.19583 -1.021611,-2.16531 -2.282031,-2.16524 z m -133.161383,0.12402 c -1.26021,-7e-5 -2.28189,0.9691 -2.28203,2.16473 1.4e-4,1.19563 1.02182,2.1648 2.28203,2.16473 1.26021,7e-5 2.28189,-0.9691 2.28203,-2.16473 -1.4e-4,-1.19563 -1.02182,-2.1648 -2.28203,-2.16473 z m 125.290029,24.87187 c -1.26021,-7e-5 -2.281889,0.9691 -2.282032,2.16473 -1.54e-4,1.19583 1.021612,2.16531 2.282032,2.16524 1.26042,7e-5 2.282185,-0.96941 2.282031,-2.16524 -1.43e-4,-1.19563 -1.021821,-2.1648 -2.282031,-2.16473 z"
       transform="scale(-1,1)"
       sodipodi:nodetypes="cscsccscsccscsccscscccccccscsc"
       sodipodi:insensitive="true" /><path
       id="rect68625"
       style="display:inline;opacity:1;fill:#dedace;fill-opacity:1;stroke:none;stroke-width:0.264583;stroke-opacity:0.341176"
       d="m 58.982963,160.88114 -12.569259,19.46031 112.685626,-0.13901 -14.26579,-19.07067 z m 4.019393,21.75474 0.04134,30.36197 c -0.149709,4.39358 0.405151,7.07609 3.848861,8.12199 l 36.182293,0.12195 11.80858,-0.0122 c -6.42773,-5.43082 -7.8096,-13.64562 -3.54707,-20.36228 8.46273,-10.18368 18.53193,-6.53269 33.18748,-7.3474 l 0.0435,-10.72644 z"
       inkscape:label="Cor Caixa"
       sodipodi:nodetypes="cccccccccccccc"
       sodipodi:insensitive="true" /><path
       id="rect109153"
       style="display:inline;opacity:1;fill:#f9a96a;fill-opacity:1;stroke:none;stroke-width:0.264953;stroke-opacity:0.341176"
       d="m 135.15791,195.99786 h 9.46496 v 13.76457 h -9.46496 z"
       inkscape:label="Cor Cauda Laranja1"
       sodipodi:insensitive="true" /><path
       id="rect109155"
       style="display:inline;opacity:1;fill:#fdecc0;fill-opacity:1;stroke:none;stroke-width:0.32584;stroke-opacity:0.341176"
       d="m 135.15751,209.75834 9.46515,-0.0208 v 7.92841 c -0.52795,2.66793 -3.13335,3.53068 -4.87278,3.57355 l -4.59237,0.0101 z"
       sodipodi:nodetypes="cccccc"
       inkscape:label="Cor Cauda Areia"
       sodipodi:insensitive="true" /><path
       id="rect115656"
       style="display:inline;opacity:1;fill:#f8a869;fill-opacity:1;stroke:none;stroke-width:0.267428;stroke-opacity:0.341176"
       d="m 128.54018,209.73542 h 6.71851 v 11.51043 h -6.71851 z"
       inkscape:label="Cor Cauda Laranja2"
       sodipodi:insensitive="true" /><path
       id="rect128908"
       style="display:inline;opacity:1;fill:#f86947;fill-opacity:1;stroke:none;stroke-width:0.438018;stroke-opacity:0.341176"
       d="m 128.53928,196.00095 h 6.73867 V 209.76 h -6.73867 z"
       inkscape:label="Cor Cauda Laranja 3"
       sodipodi:insensitive="true" /><path
       id="rect134705"
       style="display:inline;opacity:1;fill:#fc3e46;fill-opacity:1;stroke:none;stroke-width:0.299281;stroke-opacity:0.341176"
       d="m 128.63435,196.00155 v 13.78229 c -3.61002,-0.82513 -5.0366,-4.32682 -6.43628,-7.33428 -0.21242,-1.14992 -1.7114,-5.09827 -1.10351,-5.89194 1.97425,-0.60934 4.98375,-0.51184 7.53979,-0.55621 z"
       sodipodi:nodetypes="cccccc"
       inkscape:label="Cor Cauda Vermelha1"
       sodipodi:insensitive="true" /><path
       id="rect135505"
       style="display:inline;opacity:1;fill:#5f3d89;fill-opacity:1;stroke:none;stroke-width:0.555952;stroke-opacity:0.341176"
       d="m 123.2311,204.46959 c 0.97526,2.22805 3.72372,5.09764 5.41149,5.24202 v 11.53494 h -5.26778 c 0.0538,-5.59462 0.009,-11.18501 -0.14371,-16.77688 z"
       sodipodi:nodetypes="cccccc"
       inkscape:label="Cor Cauda Roxo1"
       sodipodi:insensitive="true" /><path
       id="rect141870"
       style="display:inline;opacity:1;fill:#511e7b;fill-opacity:1;stroke:none;stroke-width:0.264455;stroke-opacity:0.341176"
       d="m 112.56843,203.56488 c 2.01804,-3.39403 5.58585,-5.80078 8.5282,-7.0141 0.28827,3.16726 0.92673,5.25464 2.16698,7.98788 0.15228,5.56871 0.15369,11.13782 0.15369,16.70789 -4.25925,-0.95107 -6.11279,-1.35671 -9.07416,-3.90485 -3.29501,-4.21342 -4.05681,-9.23192 -1.77471,-13.77682 z"
       sodipodi:nodetypes="cccccc"
       inkscape:label="Cor Cauda Roxo2"
       sodipodi:insensitive="true" /><path
       id="path147232"
       style="display:inline;opacity:1;fill:#00c4d4;fill-opacity:1;stroke:none;stroke-width:0.368789;stroke-opacity:0.341176"
       d="m 132.47299,129.91917 c -18.9508,-7.97007 -22.84925,-2.57219 -27.92835,10.29141 -1.17417,-0.48704 -1.67331,-0.13489 -2.18763,-0.0348 -2.05492,-14.31688 -19.249693,-18.43523 -25.704027,-12.19196 -0.532796,0.55343 -0.843023,1.2659 -0.843023,0.70491 4.935743,-10.02577 18.369539,-13.85579 27.73292,-13.9237 12.43229,-0.933 23.57527,7.63886 29.26921,15.32958 l -0.19032,-0.0603 z"
       sodipodi:nodetypes="ccccccccc"
       inkscape:label="Testa Ciano"
       sodipodi:insensitive="true" /><path
       id="path167641"
       style="display:inline;opacity:1;fill:#fdfffc;fill-opacity:1;stroke:none;stroke-width:0.315048;stroke-opacity:0.341176"
       d="m 79.846289,125.22595 c -5.84379,3.53759 -7.852641,8.36556 -11.294918,13.4276 -1.2889,1.87667 -2.848079,3.37001 -3.685046,4.88187 -0.02215,0.27602 1.804176,2.33375 1.781286,2.91352 9.363472,-0.83871 14.18168,-16.21561 21.936129,-16.53284 3.769637,0.36872 8.421491,5.23569 9.538953,8.33954 0.547136,1.51977 0.413937,3.56117 0.972034,4.43022 1.043723,-0.7509 2.001843,-1.80438 3.230813,-2.47581 0,-7.95663 -3.802524,-14.60377 -9.555492,-17.02119 -4.494218,-1.79427 -8.864596,-0.29585 -12.923759,2.03709 z m 39.361941,-2.89135 c -1.81262,0 -3.55526,0.20715 -5.12217,0.86558 -5.75296,2.41742 -9.55549,9.06405 -9.55549,17.02067 1.22897,0.67143 2.18761,1.72491 3.23133,2.47582 1.06366,-2.94489 1.47791,-5.88499 3.68659,-8.23568 2.00213,-2.02771 5.22714,-4.62644 7.61918,-4.67413 4.12475,-0.004 6.93757,3.67733 9.30072,6.42441 0.97068,1.126 2.42785,2.91138 3.74551,4.21938 1.36151,1.28436 7.83976,6.49306 9.1705,5.88905 -0.0229,-0.57977 1.80344,-2.35689 1.78129,-2.63291 -4.3069,-3.60413 -6.47798,-8.26938 -9.52294,-12.55738 -1.96484,-2.63243 -4.39768,-4.52393 -6.53241,-5.89266 -2.01907,-1.17022 -5.40769,-2.90215 -7.80211,-2.90215 z"
       inkscape:label="Parte Branca Testa"
       sodipodi:insensitive="true"
       sodipodi:nodetypes="ccccccccccssccccccccccs" /><path
       id="rect171349"
       style="display:inline;opacity:1;fill:#fcfefb;fill-opacity:1;stroke:none;stroke-width:0.276381;stroke-opacity:0.341176"
       d="m 93.637879,150.18542 c 3.46041,-5.20021 6.696781,-7.7487 9.969811,-7.5107 3.55676,0.25864 7.13988,3.7486 10.65672,9.14773 0.85782,1.9887 1.08927,4.0554 1.36156,6.17599 l -24.326699,-0.002 c 0.641427,-2.73621 1.026589,-5.33171 2.338608,-7.81095 z"
       sodipodi:nodetypes="cscccc"
       inkscape:label="Fucinho Parte Branca"
       sodipodi:insensitive="true" /><path
       id="rect176381"
       style="display:inline;opacity:1;fill:#d4cec2;fill-opacity:1;stroke:none;stroke-width:0.269305;stroke-opacity:0.341176"
       d="m 136.41235,150.41718 c -7.47631,-0.0227 -14.90348,0.50486 -22.34283,1.14101 1.04709,2.03131 1.25991,4.51174 1.55443,6.43992 2.15384,0.0872 4.10766,0.0104 5.91643,-0.22844 6.24914,-1.22199 10.49736,-3.5366 14.87197,-7.35249 z m -66.357264,0.47751 c 5.894833,5.31023 14.666871,7.18274 21.244768,7.1019 l 1.653645,-6.29109 c -7.596846,-1.2015 -15.241477,-0.87138 -22.898413,-0.81081 z"
       inkscape:label="Parte Cinza Fucinho"
       sodipodi:nodetypes="ccccccccc"
       sodipodi:insensitive="true" /><path
       id="path186883"
       style="display:inline;opacity:1;fill:#e0d8ca;fill-opacity:1;stroke:none;stroke-width:0.266783;stroke-opacity:0.341176"
       d="m 102.18496,137.32909 -3.719389,2.36471 c 0.04382,1.1099 0.266408,2.12461 0.55868,3.11771 l 3.375479,-2.63815 c 0.0262,-0.99116 -0.11326,-1.93118 -0.21474,-2.84427 z m 2.5229,0.017 c -0.13762,0.94399 -0.16647,1.89288 -0.19906,2.84427 l 3.55863,2.89388 c -0.0812,-1.22125 0.24938,-2.05341 0.58919,-3.1502 z"
       inkscape:label="Parte Cinza Testa"
       sodipodi:nodetypes="ccccccccccc"
       sodipodi:insensitive="true" /><path
       id="path199857"
       style="display:inline;opacity:1;fill:#3b0651;fill-opacity:1;stroke:none;stroke-width:0.281982;stroke-opacity:0.341176"
       d="m 100.80625,151.17372 c 0.50192,1.03558 1.54886,1.7477 2.759,1.7477 4.43152,-1.35654 5.37528,-6.43389 0.0235,-6.50116 -3.30163,-0.37458 -4.422106,2.14787 -2.78252,4.75346 z m 0.0373,2.59505 c -0.58889,1.79639 1.41258,2.8009 2.65138,2.82424 1.23344,-0.14994 2.80111,-0.68794 2.96882,-2.07791 -0.0302,-0.58326 -0.52465,-1.09883 -1.07384,-0.79375 -0.74031,0.47642 -0.98362,1.13189 -2.08204,1.04799 -1.01157,-0.12623 -1.61021,-1.3945 -2.46432,-1.00057 z"
       inkscape:label="Detalhes Fucinho"
       sodipodi:nodetypes="cccccccccc"
       sodipodi:insensitive="true" /><path
       style="display:inline;opacity:1;fill:#964464;fill-opacity:1;stroke:none;stroke-width:0.264583;stroke-opacity:0.341176"
       d="m 105.60182,149.22498 c -0.36735,0.97402 -1.10002,1.44549 -1.90996,1.7968 -1.23771,-0.22626 -1.70108,-0.83491 -2.22415,-1.83555 0.81166,-1.45321 3.92446,-1.08023 4.13411,0.0387 z"
       id="path196144"
       sodipodi:nodetypes="cccc"
       inkscape:label="Fucinho parte marrom"
       sodipodi:insensitive="true" /><path
       id="path204365"
       style="display:inline;opacity:1;fill:#623b8a;fill-opacity:1;stroke:none;stroke-width:0.264583;stroke-opacity:0.341176"
       inkscape:label="Orelha parte interna"
       d="m 70.879397,107.38053 c 5.325818,0.0617 13.230778,5.34273 15.542204,8.26306 l -5.753137,4.06952 -0.09354,-0.2341 c -0.319039,-3.35393 -1.946167,-5.26254 -3.977535,-7.29516 -2.509537,-1.79255 -4.325062,-3.82001 -7.107059,-2.23966 -1.22892,2.65859 1.668359,7.09331 3.180167,9.02064 1.139909,1.49395 2.679054,2.42221 4.209562,3.46077 l -4.256071,4.44366 -1.122928,-1.0759 c -2.938368,-4.93424 -7.014257,-14.6968 -3.26285,-17.86196 0.75748,-0.3947 1.65492,-0.5623 2.641182,-0.55087 z m 65.365523,0.34985 c 0.98626,-0.0114 1.8837,0.15617 2.64118,0.55087 3.75141,3.16516 -0.32448,12.92772 -3.26285,17.86195 l -1.12293,1.07591 -4.25607,-4.44366 c 1.53051,-1.03856 3.06965,-1.96682 4.20956,-3.46077 1.51181,-1.92733 4.40909,-6.36205 3.18017,-9.02064 -2.782,-1.58036 -4.59752,0.44711 -7.10706,2.23966 -2.03137,2.03262 -3.6585,3.94122 -3.97754,7.29516 l -0.0935,0.2341 -5.75314,-4.06952 c 2.31143,-2.92033 10.21639,-8.20136 15.54221,-8.26306 z"
       sodipodi:insensitive="true" /><path
       id="path149608"
       style="display:inline;opacity:1;fill:#e47659;fill-opacity:1;stroke:none;stroke-width:0.288721;stroke-opacity:0.341176"
       d="m 117.27656,134.50755 a 5.258594,5.7216148 0 0 0 -5.25859,5.72162 5.258594,5.7216148 0 0 0 5.25859,5.72161 5.258594,5.7216148 0 0 0 5.2586,-5.72161 5.258594,5.7216148 0 0 0 -5.2586,-5.72162 z m -26.954425,0.0331 a 5.258594,5.7216148 0 0 0 -5.258593,5.72162 5.258594,5.7216148 0 0 0 5.258593,5.72161 5.258594,5.7216148 0 0 0 5.258594,-5.72161 5.258594,5.7216148 0 0 0 -5.258594,-5.72162 z"
       inkscape:label="Olhos "
       sodipodi:insensitive="true" /><path
       id="path34431"
       style="display:inline;opacity:1;fill:#5e1f60;stroke-width:0.264583;stroke-opacity:0.341176"
       d="m -90.260643,136.99577 a 2.80633,3.2740517 0 0 0 -2.806547,3.2737 2.80633,3.2740517 0 0 0 2.806547,3.27422 2.80633,3.2740517 0 0 0 2.80603,-3.27422 2.80633,3.2740517 0 0 0 -2.80603,-3.2737 z m -26.952357,0.0465 a 2.80633,3.2740517 0 0 0 -2.80655,3.27422 2.80633,3.2740517 0 0 0 2.80655,3.27422 2.80633,3.2740517 0 0 0 2.80654,-3.27422 2.80633,3.2740517 0 0 0 -2.80654,-3.27422 z"
       transform="scale(-1,1)"
       inkscape:label="Cor dos Olhos"
       sodipodi:insensitive="true" /><path
       id="path162474"
       style="display:inline;opacity:1;fill:#e6e6e6;fill-opacity:1;stroke:none;stroke-width:0.264583;stroke-opacity:0.341176"
       d="m 117.13704,138.48354 a 1.4499372,1.6487188 0 0 0 -1.45004,1.64899 1.4499372,1.6487188 0 0 0 1.45004,1.64848 1.4499372,1.6487188 0 0 0 1.45004,-1.64848 1.4499372,1.6487188 0 0 0 -1.45004,-1.64899 z m -26.847461,0.14107 a 1.4499372,1.6487188 0 0 0 -1.45004,1.649 1.4499372,1.6487188 0 0 0 1.45004,1.64847 1.4499372,1.6487188 0 0 0 1.450041,-1.64847 1.4499372,1.6487188 0 0 0 -1.450041,-1.649 z"
       inkscape:label="Pupilas"
       sodipodi:insensitive="true" /><path
       id="path38886-8"
       style="display:inline;opacity:0.5;fill:#8b5268;fill-opacity:1;stroke:none;stroke-width:0.264583;stroke-opacity:0.341176;filter:url(#filter71001)"
       inkscape:label="Sombra Olhos"
       d="m 94.013902,136.43457 0.740007,1.23248 c 1.105933,2.28559 0.775652,4.04413 -0.681096,6.35465 -0.798588,0.81736 -2.013491,1.238 -3.613732,1.76733 -2.388292,-0.33406 -4.157297,-1.77969 -4.974374,-3.69331 0.01957,-0.284 0.452029,-0.35764 1.848983,-0.98392 0.712181,2.01087 2.013186,3.43299 4.528922,2.05776 0.879327,-0.95259 1.389434,-1.52986 1.449524,-2.89957 -0.08733,-0.96106 -0.302926,-1.64007 -0.929659,-2.43499 z m 19.593638,0.0434 1.58181,1.28468 c -3.41157,4.86084 3.05405,8.75435 5.09892,3.39256 1.39695,0.62628 1.82942,0.69992 1.84898,0.98392 -0.81708,1.91362 -2.5866,3.35925 -4.97489,3.69331 -1.60025,-0.52933 -2.81463,-0.94946 -3.61322,-1.76682 -1.45673,-2.3105 -1.78702,-4.06957 -0.68109,-6.35516 z"
       sodipodi:insensitive="true" /><path
       id="rect855"
       style="display:inline;opacity:1;fill:#d9d1c7;fill-opacity:1;stroke-width:0.264732;stroke-opacity:0.341176"
       d="m -74.338618,160.86047 v 19.52335 h 12.104688 v -19.52335 z m -13.15992,21.76249 v 38.56716 h 13.219865 v -38.56716 z"
       transform="scale(-1,1)"
       inkscape:label="Sombra Caixa1"
       sodipodi:insensitive="true" /><path
       id="rect855-8"
       style="display:inline;opacity:1;fill:#d4c9c3;fill-opacity:1;stroke-width:0.244794;stroke-opacity:0.341176"
       d="m 62.267003,160.8615 v 19.52336 l -15.879134,-0.0155 c 4.165291,-6.52443 8.246005,-13.1066 12.599748,-19.50785 z m 12.036475,21.76146 v 38.56716 h -6.243547 c -3.654512,0.24133 -5.35592,-3.46566 -5.060156,-6.67918 v -31.88798 z"
       inkscape:label="Sombra Caixa2"
       sodipodi:insensitive="true" /></g></svg>
