<?xml version="1.0" encoding="UTF-8" standalone="no"?>
<!-- Created with Inkscape (http://www.inkscape.org/) -->

<svg
   width="210mm"
   height="297mm"
   viewBox="0 0 210 297"
   version="1.1"
   id="svg5"
   xml:space="preserve"
   inkscape:version="1.2.2 (732a01da63, 2022-12-09)"
   sodipodi:docname="Logo-PacShop-v1-CaixaComSombraf.svg"
   xmlns:inkscape="http://www.inkscape.org/namespaces/inkscape"
   xmlns:sodipodi="http://sodipodi.sourceforge.net/DTD/sodipodi-0.dtd"
   xmlns="http://www.w3.org/2000/svg"
   xmlns:svg="http://www.w3.org/2000/svg"><sodipodi:namedview
     id="namedview7"
     pagecolor="#ffffff"
     bordercolor="#000000"
     borderopacity="0.25"
     inkscape:showpageshadow="2"
     inkscape:pageopacity="0.0"
     inkscape:pagecheckerboard="0"
     inkscape:deskcolor="#d1d1d1"
     inkscape:document-units="mm"
     showgrid="false"
     inkscape:zoom="0.5"
     inkscape:cx="11"
     inkscape:cy="725"
     inkscape:window-width="1280"
     inkscape:window-height="961"
     inkscape:window-x="-8"
     inkscape:window-y="-8"
     inkscape:window-maximized="1"
     inkscape:current-layer="layer1" /><defs
     id="defs2"><inkscape:path-effect
       effect="skeletal"
       id="path-effect26456"
       is_visible="true"
       lpeversion="1"
       pattern="M 0,4.9921382 C 0,2.2364779 2.2364779,0 4.9921382,0 c 2.7556604,0 4.9921383,2.2364779 4.9921383,4.9921382 0,2.7556604 -2.2364779,4.9921383 -4.9921383,4.9921383 C 2.2364779,9.9842765 0,7.7477986 0,4.9921382 Z"
       copytype="single_stretched"
       prop_scale="1"
       scale_y_rel="false"
       spacing="0"
       normal_offset="0"
       tang_offset="0"
       prop_units="false"
       vertical_pattern="false"
       hide_knot="false"
       fuse_tolerance="0" /><inkscape:path-effect
       effect="skeletal"
       id="path-effect21895"
       is_visible="true"
       lpeversion="1"
       pattern="M 0,4.9921382 C 0,2.2364779 2.2364779,0 4.9921382,0 c 2.7556604,0 4.9921383,2.2364779 4.9921383,4.9921382 0,2.7556604 -2.2364779,4.9921383 -4.9921383,4.9921383 C 2.2364779,9.9842765 0,7.7477986 0,4.9921382 Z"
       copytype="single_stretched"
       prop_scale="1"
       scale_y_rel="false"
       spacing="0"
       normal_offset="0"
       tang_offset="0"
       prop_units="false"
       vertical_pattern="false"
       hide_knot="false"
       fuse_tolerance="0" /><inkscape:path-effect
       effect="skeletal"
       id="path-effect20439"
       is_visible="true"
       lpeversion="1"
       pattern="M 0,4.9921382 C 0,2.2364779 2.2364779,0 4.9921382,0 c 2.7556604,0 4.9921383,2.2364779 4.9921383,4.9921382 0,2.7556604 -2.2364779,4.9921383 -4.9921383,4.9921383 C 2.2364779,9.9842765 0,7.7477986 0,4.9921382 Z"
       copytype="single_stretched"
       prop_scale="1"
       scale_y_rel="false"
       spacing="0"
       normal_offset="0"
       tang_offset="0"
       prop_units="false"
       vertical_pattern="false"
       hide_knot="false"
       fuse_tolerance="0" /><filter
       inkscape:collect="always"
       style="color-interpolation-filters:sRGB"
       id="filter71001"
       x="-0.03440582"
       y="-0.13418581"
       width="1.0688116"
       height="1.2683716"><feGaussianBlur
         inkscape:collect="always"
         stdDeviation="0.52544199"
         id="feGaussianBlur71003" /></filter></defs><g
     inkscape:label="Sketch"
     inkscape:groupmode="layer"
     id="layer1"
     style="display:inline"
     transform="matrix(-1,0,0,1,211.45893,0)"><path
       id="rect31600"
       style="display:inline;opacity:1;fill:#330b49;fill-opacity:1;stroke:none;stroke-width:0.307763"
       inkscape:label="Contornos/Borda "
       d="m 118.9607,86.904773 c 0.0361,0.0085 0.0714,0.01786 0.10749,0.02635 -0.0168,0.04743 -0.0288,0.09583 -0.0434,0.14366 -0.0554,0.0086 -0.11018,0.0259 -0.16537,0.03721 0.0345,-0.0687 0.0665,-0.138695 0.10129,-0.207222 z m 6.79752,13.547497 c -0.0705,0.0799 -0.14064,0.16061 -0.21343,0.23667 -0.0179,-0.0603 -0.0296,-0.12199 -0.0486,-0.1819 0.0887,-0.0143 0.17554,-0.0341 0.262,-0.0548 z m -55.380601,4.67516 c 1.549226,-0.0323 3.35463,0.22831 5.393469,0.58033 5.658909,1.45181 9.222222,4.39162 13.736629,8.67751 4.084012,-1.21096 8.053129,-2.35808 12.363583,-2.45618 5.77851,-0.007 10.26014,0.26012 15.89516,2.39158 4.69497,-3.96332 16.14799,-11.71348 23.02237,-8.35711 5.99443,6.46801 -0.24975,15.28555 -4.50981,23.21564 3.43067,5.19638 6.35248,9.65849 10.78642,14.80374 -0.81122,0.99299 -1.5775,1.91791 -2.34352,2.80138 -0.16798,0.12661 -0.31312,0.27701 -0.44287,0.50591 -1.74845,1.97135 -3.5445,3.71699 -5.934,5.40123 -3.77684,2.25598 -7.54595,4.39611 -12.438,5.31492 4.44879,0.004 8.89764,0.004 13.34647,-0.0145 2.22202,0.002 4.44368,-0.0285 6.66109,0.14624 1.60363,2.27311 3.43327,4.71514 5.0369,6.9882 l 7.15719,9.2444 c 1.02258,1.3828 2.03598,2.77259 3.0794,4.1398 0.75367,1.15557 1.29629,1.89806 0.9834,3.30936 -0.35073,0.44538 -0.65909,0.73101 -1.23558,0.91984 l -14.00432,0.0811 0.0207,28.47475 -0.0754,7.70237 c -0.20192,1.27218 -1.12746,2.34866 -2.09342,3.21428 -1.25346,0.88848 -2.78974,1.38955 -4.4421,1.36735 l -73.405341,-0.0103 c -1.295735,-0.19161 -2.807486,-0.58107 -3.917074,-1.63608 -0.968187,-1.10731 -2.312177,-2.53303 -2.443778,-4.32428 -0.113462,-5.11667 0.03296,-10.23613 -0.001,-15.35359 l -0.01654,-19.65616 -16.379362,0.10232 c -0.423042,-0.30106 -0.825228,-0.5299 -1.053166,-1.01544 -0.07972,-1.18369 0.494268,-2.04279 1.227315,-3.07268 l 8.533329,-13.60382 c 1.166925,-1.65305 2.362436,-3.28636 3.407028,-5.0214 0.557338,-0.65036 1.019705,-1.38671 1.827278,-1.73581 l 5.694743,-0.14418 c 6.161256,-0.0856 10.554982,-0.11088 16.473413,0.0512 -0.958699,-0.32154 -2.104552,-0.41865 -2.98173,-0.69298 -4.494619,-1.40565 -7.61052,-2.98502 -11.917619,-7.71581 -1.280076,-1.72677 -3.028316,-4.6953 -4.76095,-6.44767 2.535552,-2.89422 4.901922,-5.03991 7.124113,-8.18555 l 3.250448,-6.00531 c -3.088385,-3.26462 -4.117342,-4.72347 -5.684924,-9.23613 -0.753526,-2.68795 -1.247766,-5.31138 -1.212846,-8.13956 0.695142,-5.04937 2.864698,-6.53784 6.273002,-6.6089 z m 85.504861,31.06581 c 0.0194,4.9e-4 0.0316,0.0102 0.0413,0.0232 -0.008,0.0274 -0.0178,0.0531 -0.0253,0.0811 -0.0464,0.17226 -0.05,0.35209 -0.0538,0.53175 -0.005,0.003 -0.01,0.006 -0.0145,0.009 -0.0456,-0.1001 -0.0848,-0.20191 -0.10542,-0.29559 7.5e-4,-0.006 0.002,-0.011 0.003,-0.0165 0.0427,-0.1247 0.0884,-0.23355 0.13798,-0.32918 0.005,-7e-4 0.0116,-0.003 0.016,-0.004 z m -2.83807,0.5364 c -0.005,0.0444 -0.01,0.0889 -0.0145,0.13332 -0.0137,-0.0307 -0.0305,-0.0591 -0.0455,-0.0889 0.0199,-0.0156 0.04,-0.0291 0.0599,-0.0444 z m -2.46445,17.14831 c 0.0463,0.0242 0.0934,0.0467 0.14004,0.0703 -0.067,-3.3e-4 -0.13528,0.005 -0.20154,0.002 0.021,-0.0234 0.0418,-0.0469 0.0615,-0.0718 z m 27.47636,6.06681 v 5.2e-4 c -0.004,0.016 -0.008,0.0299 -0.0134,0.0455 -0.006,-0.0147 -0.0128,-0.0298 -0.0186,-0.0439 0.0107,-4.3e-4 0.0213,-0.001 0.032,-0.002 z m -137.848436,5.66735 c 0.02299,0.0613 0.03633,0.1219 0.03359,0.1788 -0.01977,-0.002 -0.03986,-0.003 -0.05943,-0.006 -0.01574,-0.0585 -0.02171,-0.11429 -0.01602,-0.16692 0.01394,-0.002 0.02797,-0.004 0.04186,-0.006 z M 169.52764,182.47 c 0.12651,0.18858 0.2764,0.482 0.3669,0.79117 -0.0969,-0.13603 -0.18872,-0.27531 -0.27543,-0.41755 -0.0346,-0.12251 -0.0653,-0.24731 -0.0915,-0.37362 z m -9.06663,23.17223 c -0.22907,0.11644 -0.16225,0.0426 0,0 z m -2.1022,1.25884 c 0.002,0.0134 0.003,0.0269 0.005,0.0403 -0.006,8e-4 -0.0111,0.002 -0.0171,0.003 0.003,-0.0147 0.008,-0.0288 0.0119,-0.0434 z m -104.689215,7.3613 c 0.01196,0.0243 0.0268,0.0473 0.03721,0.0724 0.12383,0.29758 -0.0584,0.1704 -0.03721,-0.0724 z" /><path
       id="path109253-6"
       style="display:inline;opacity:1;fill:#ff0076;fill-opacity:1;stroke-width:0.288048;stroke-opacity:0.341176"
       inkscape:label="Magentas"
       transform="scale(-1,1)"
       d="m -178.05632,159.94476 v 5.2e-4 c 0.004,0.016 0.008,0.0299 0.0134,0.0455 0.006,-0.0147 0.0128,-0.0298 0.0186,-0.0439 -0.0107,-4.3e-4 -0.0213,-0.001 -0.032,-0.002 z m 124.386725,54.31761 c -0.01196,0.0243 -0.0268,0.0473 -0.03721,0.0724 -0.12383,0.29758 0.0584,0.1704 0.03721,-0.0724 z" /><path
       id="path109253-76"
       style="display:inline;opacity:1;fill:#f5a216;fill-opacity:1;stroke-width:0.288048;stroke-opacity:0.341176"
       inkscape:label="Laranjas"
       transform="scale(-1,1)"
       d="m -40.207884,165.61211 c -0.02655,0.0708 -0.04527,0.14172 -0.03462,0.20568 1.42e-4,8.4e-4 0.0022,-2.8e-4 0.0026,5.1e-4 a 1.7753187,1.7891397 0 0 0 0.05168,-0.007 c 0.0226,-0.0684 0.02876,-0.13232 0.02222,-0.19276 -0.01394,-0.002 -0.02797,-0.004 -0.04186,-0.006 z" /><path
       id="path82207-9"
       style="display:inline;opacity:1;fill:#f311e2;fill-opacity:1;stroke-width:0.245406;stroke-opacity:0.341176"
       inkscape:label="Isopores Pinks"
       transform="scale(-1,1)"
       d="m -169.52764,182.47 c -0.12651,0.18858 -0.2764,0.482 -0.3669,0.79117 0.0969,-0.13603 0.18872,-0.27531 0.27543,-0.41755 0.0346,-0.12251 0.0653,-0.24731 0.0915,-0.37362 z" /><path
       id="rect68625"
       style="display:inline;opacity:1;fill:#dedace;fill-opacity:1;stroke:none;stroke-width:0.264583;stroke-opacity:0.341176"
       d="m 58.982963,160.88114 -12.569259,19.46031 112.685626,-0.13901 -14.26579,-19.07067 z m 4.019393,21.75474 0.04134,30.36197 c -0.149709,4.39358 0.405151,7.07609 3.848861,8.12199 l 36.182293,0.12195 11.80858,-0.0122 c -6.42773,-5.43082 -7.8096,-13.64562 -3.54707,-20.36228 8.46273,-10.18368 18.53193,-6.53269 33.18748,-7.3474 l 0.0435,-10.72644 z"
       inkscape:label="Cor Caixa"
       sodipodi:nodetypes="cccccccccccccc"
       sodipodi:insensitive="true" /><path
       id="rect109153"
       style="display:inline;opacity:1;fill:#f9a96a;fill-opacity:1;stroke:none;stroke-width:0.264953;stroke-opacity:0.341176"
       d="m 135.15791,195.99786 h 9.46496 v 13.76457 h -9.46496 z"
       inkscape:label="Cor Cauda Laranja1"
       sodipodi:insensitive="true" /><path
       id="rect109155"
       style="display:inline;opacity:1;fill:#fdecc0;fill-opacity:1;stroke:none;stroke-width:0.32584;stroke-opacity:0.341176"
       d="m 135.15751,209.75834 9.46515,-0.0208 v 7.92841 c -0.52795,2.66793 -3.13335,3.53068 -4.87278,3.57355 l -4.59237,0.0101 z"
       sodipodi:nodetypes="cccccc"
       inkscape:label="Cor Cauda Areia"
       sodipodi:insensitive="true" /><path
       id="rect115656"
       style="display:inline;opacity:1;fill:#f8a869;fill-opacity:1;stroke:none;stroke-width:0.267428;stroke-opacity:0.341176"
       d="m 128.54018,209.73542 h 6.71851 v 11.51043 h -6.71851 z"
       inkscape:label="Cor Cauda Laranja2"
       sodipodi:insensitive="true" /><path
       id="rect128908"
       style="display:inline;opacity:1;fill:#f86947;fill-opacity:1;stroke:none;stroke-width:0.438018;stroke-opacity:0.341176"
       d="m 128.53928,196.00095 h 6.73867 V 209.76 h -6.73867 z"
       inkscape:label="Cor Cauda Laranja 3"
       sodipodi:insensitive="true" /><path
       id="rect134705"
       style="display:inline;opacity:1;fill:#fc3e46;fill-opacity:1;stroke:none;stroke-width:0.299281;stroke-opacity:0.341176"
       d="m 128.63435,196.00155 v 13.78229 c -3.61002,-0.82513 -5.0366,-4.32682 -6.43628,-7.33428 -0.21242,-1.14992 -1.7114,-5.09827 -1.10351,-5.89194 1.97425,-0.60934 4.98375,-0.51184 7.53979,-0.55621 z"
       sodipodi:nodetypes="cccccc"
       inkscape:label="Cor Cauda Vermelha1"
       sodipodi:insensitive="true" /><path
       id="rect135505"
       style="display:inline;opacity:1;fill:#5f3d89;fill-opacity:1;stroke:none;stroke-width:0.555952;stroke-opacity:0.341176"
       d="m 123.2311,204.46959 c 0.97526,2.22805 3.72372,5.09764 5.41149,5.24202 v 11.53494 h -5.26778 c 0.0538,-5.59462 0.009,-11.18501 -0.14371,-16.77688 z"
       sodipodi:nodetypes="cccccc"
       inkscape:label="Cor Cauda Roxo1"
       sodipodi:insensitive="true" /><path
       id="rect141870"
       style="display:inline;opacity:1;fill:#511e7b;fill-opacity:1;stroke:none;stroke-width:0.264455;stroke-opacity:0.341176"
       d="m 112.56843,203.56488 c 2.01804,-3.39403 5.58585,-5.80078 8.5282,-7.0141 0.28827,3.16726 0.92673,5.25464 2.16698,7.98788 0.15228,5.56871 0.15369,11.13782 0.15369,16.70789 -4.25925,-0.95107 -6.11279,-1.35671 -9.07416,-3.90485 -3.29501,-4.21342 -4.05681,-9.23192 -1.77471,-13.77682 z"
       sodipodi:nodetypes="cccccc"
       inkscape:label="Cor Cauda Roxo2"
       sodipodi:insensitive="true" /><path
       id="path147232"
       style="display:inline;opacity:1;fill:#00c4d4;fill-opacity:1;stroke:none;stroke-width:0.368789;stroke-opacity:0.341176"
       d="m 132.47299,129.91917 c -18.9508,-7.97007 -22.84925,-2.57219 -27.92835,10.29141 -1.17417,-0.48704 -1.67331,-0.13489 -2.18763,-0.0348 -2.05492,-14.31688 -19.249693,-18.43523 -25.704027,-12.19196 -0.532796,0.55343 -0.843023,1.2659 -0.843023,0.70491 4.935743,-10.02577 18.369539,-13.85579 27.73292,-13.9237 12.43229,-0.933 23.57527,7.63886 29.26921,15.32958 l -0.19032,-0.0603 z"
       sodipodi:nodetypes="ccccccccc"
       inkscape:label="Testa Ciano"
       sodipodi:insensitive="true" /><path
       id="path167641"
       style="display:inline;opacity:1;fill:#fdfffc;fill-opacity:1;stroke:none;stroke-width:0.315048;stroke-opacity:0.341176"
       d="m 79.846289,125.22595 c -5.84379,3.53759 -7.852641,8.36556 -11.294918,13.4276 -1.2889,1.87667 -2.848079,3.37001 -3.685046,4.88187 -0.02215,0.27602 1.804176,2.33375 1.781286,2.91352 9.363472,-0.83871 14.18168,-16.21561 21.936129,-16.53284 3.769637,0.36872 8.421491,5.23569 9.538953,8.33954 0.547136,1.51977 0.413937,3.56117 0.972034,4.43022 1.043723,-0.7509 2.001843,-1.80438 3.230813,-2.47581 0,-7.95663 -3.802524,-14.60377 -9.555492,-17.02119 -4.494218,-1.79427 -8.864596,-0.29585 -12.923759,2.03709 z m 39.361941,-2.89135 c -1.81262,0 -3.55526,0.20715 -5.12217,0.86558 -5.75296,2.41742 -9.55549,9.06405 -9.55549,17.02067 1.22897,0.67143 2.18761,1.72491 3.23133,2.47582 1.06366,-2.94489 1.47791,-5.88499 3.68659,-8.23568 2.00213,-2.02771 5.22714,-4.62644 7.61918,-4.67413 4.12475,-0.004 6.93757,3.67733 9.30072,6.42441 0.97068,1.126 2.42785,2.91138 3.74551,4.21938 1.36151,1.28436 7.83976,6.49306 9.1705,5.88905 -0.0229,-0.57977 1.80344,-2.35689 1.78129,-2.63291 -4.3069,-3.60413 -6.47798,-8.26938 -9.52294,-12.55738 -1.96484,-2.63243 -4.39768,-4.52393 -6.53241,-5.89266 -2.01907,-1.17022 -5.40769,-2.90215 -7.80211,-2.90215 z"
       inkscape:label="Parte Branca Testa"
       sodipodi:insensitive="true"
       sodipodi:nodetypes="ccccccccccssccccccccccs" /><path
       id="rect171349"
       style="display:inline;opacity:1;fill:#fcfefb;fill-opacity:1;stroke:none;stroke-width:0.276381;stroke-opacity:0.341176"
       d="m 93.637879,150.18542 c 3.46041,-5.20021 6.696781,-7.7487 9.969811,-7.5107 3.55676,0.25864 7.13988,3.7486 10.65672,9.14773 0.85782,1.9887 1.08927,4.0554 1.36156,6.17599 l -24.326699,-0.002 c 0.641427,-2.73621 1.026589,-5.33171 2.338608,-7.81095 z"
       sodipodi:nodetypes="cscccc"
       inkscape:label="Fucinho Parte Branca"
       sodipodi:insensitive="true" /><path
       id="rect176381"
       style="display:inline;opacity:1;fill:#d4cec2;fill-opacity:1;stroke:none;stroke-width:0.269305;stroke-opacity:0.341176"
       d="m 136.41235,150.41718 c -7.47631,-0.0227 -14.90348,0.50486 -22.34283,1.14101 1.04709,2.03131 1.25991,4.51174 1.55443,6.43992 2.15384,0.0872 4.10766,0.0104 5.91643,-0.22844 6.24914,-1.22199 10.49736,-3.5366 14.87197,-7.35249 z m -66.357264,0.47751 c 5.894833,5.31023 14.666871,7.18274 21.244768,7.1019 l 1.653645,-6.29109 c -7.596846,-1.2015 -15.241477,-0.87138 -22.898413,-0.81081 z"
       inkscape:label="Parte Cinza Fucinho"
       sodipodi:nodetypes="ccccccccc"
       sodipodi:insensitive="true" /><path
       id="path186883"
       style="display:inline;opacity:1;fill:#e0d8ca;fill-opacity:1;stroke:none;stroke-width:0.266783;stroke-opacity:0.341176"
       d="m 102.18496,137.32909 -3.719389,2.36471 c 0.04382,1.1099 0.266408,2.12461 0.55868,3.11771 l 3.375479,-2.63815 c 0.0262,-0.99116 -0.11326,-1.93118 -0.21474,-2.84427 z m 2.5229,0.017 c -0.13762,0.94399 -0.16647,1.89288 -0.19906,2.84427 l 3.55863,2.89388 c -0.0812,-1.22125 0.24938,-2.05341 0.58919,-3.1502 z"
       inkscape:label="Parte Cinza Testa"
       sodipodi:nodetypes="ccccccccccc"
       sodipodi:insensitive="true" /><path
       id="path199857"
       style="display:inline;opacity:1;fill:#3b0651;fill-opacity:1;stroke:none;stroke-width:0.281982;stroke-opacity:0.341176"
       d="m 100.80625,151.17372 c 0.50192,1.03558 1.54886,1.7477 2.759,1.7477 4.43152,-1.35654 5.37528,-6.43389 0.0235,-6.50116 -3.30163,-0.37458 -4.422106,2.14787 -2.78252,4.75346 z m 0.0373,2.59505 c -0.58889,1.79639 1.41258,2.8009 2.65138,2.82424 1.23344,-0.14994 2.80111,-0.68794 2.96882,-2.07791 -0.0302,-0.58326 -0.52465,-1.09883 -1.07384,-0.79375 -0.74031,0.47642 -0.98362,1.13189 -2.08204,1.04799 -1.01157,-0.12623 -1.61021,-1.3945 -2.46432,-1.00057 z"
       inkscape:label="Detalhes Fucinho"
       sodipodi:nodetypes="cccccccccc"
       sodipodi:insensitive="true" /><path
       style="display:inline;opacity:1;fill:#964464;fill-opacity:1;stroke:none;stroke-width:0.264583;stroke-opacity:0.341176"
       d="m 105.60182,149.22498 c -0.36735,0.97402 -1.10002,1.44549 -1.90996,1.7968 -1.23771,-0.22626 -1.70108,-0.83491 -2.22415,-1.83555 0.81166,-1.45321 3.92446,-1.08023 4.13411,0.0387 z"
       id="path196144"
       sodipodi:nodetypes="cccc"
       inkscape:label="Fucinho parte marrom"
       sodipodi:insensitive="true" /><path
       id="path204365"
       style="display:inline;opacity:1;fill:#623b8a;fill-opacity:1;stroke:none;stroke-width:0.264583;stroke-opacity:0.341176"
       inkscape:label="Orelha parte interna"
       d="m 70.879397,107.38053 c 5.325818,0.0617 13.230778,5.34273 15.542204,8.26306 l -5.753137,4.06952 -0.09354,-0.2341 c -0.319039,-3.35393 -1.946167,-5.26254 -3.977535,-7.29516 -2.509537,-1.79255 -4.325062,-3.82001 -7.107059,-2.23966 -1.22892,2.65859 1.668359,7.09331 3.180167,9.02064 1.139909,1.49395 2.679054,2.42221 4.209562,3.46077 l -4.256071,4.44366 -1.122928,-1.0759 c -2.938368,-4.93424 -7.014257,-14.6968 -3.26285,-17.86196 0.75748,-0.3947 1.65492,-0.5623 2.641182,-0.55087 z m 65.365523,0.34985 c 0.98626,-0.0114 1.8837,0.15617 2.64118,0.55087 3.75141,3.16516 -0.32448,12.92772 -3.26285,17.86195 l -1.12293,1.07591 -4.25607,-4.44366 c 1.53051,-1.03856 3.06965,-1.96682 4.20956,-3.46077 1.51181,-1.92733 4.40909,-6.36205 3.18017,-9.02064 -2.782,-1.58036 -4.59752,0.44711 -7.10706,2.23966 -2.03137,2.03262 -3.6585,3.94122 -3.97754,7.29516 l -0.0935,0.2341 -5.75314,-4.06952 c 2.31143,-2.92033 10.21639,-8.20136 15.54221,-8.26306 z"
       sodipodi:insensitive="true" /><path
       id="path149608"
       style="display:inline;opacity:1;fill:#e47659;fill-opacity:1;stroke:none;stroke-width:0.288721;stroke-opacity:0.341176"
       d="m 117.27656,134.50755 a 5.258594,5.7216148 0 0 0 -5.25859,5.72162 5.258594,5.7216148 0 0 0 5.25859,5.72161 5.258594,5.7216148 0 0 0 5.2586,-5.72161 5.258594,5.7216148 0 0 0 -5.2586,-5.72162 z m -26.954425,0.0331 a 5.258594,5.7216148 0 0 0 -5.258593,5.72162 5.258594,5.7216148 0 0 0 5.258593,5.72161 5.258594,5.7216148 0 0 0 5.258594,-5.72161 5.258594,5.7216148 0 0 0 -5.258594,-5.72162 z"
       inkscape:label="Olhos "
       sodipodi:insensitive="true" /><path
       id="path34431"
       style="display:inline;opacity:1;fill:#5e1f60;stroke-width:0.264583;stroke-opacity:0.341176"
       d="m -90.260643,136.99577 a 2.80633,3.2740517 0 0 0 -2.806547,3.2737 2.80633,3.2740517 0 0 0 2.806547,3.27422 2.80633,3.2740517 0 0 0 2.80603,-3.27422 2.80633,3.2740517 0 0 0 -2.80603,-3.2737 z m -26.952357,0.0465 a 2.80633,3.2740517 0 0 0 -2.80655,3.27422 2.80633,3.2740517 0 0 0 2.80655,3.27422 2.80633,3.2740517 0 0 0 2.80654,-3.27422 2.80633,3.2740517 0 0 0 -2.80654,-3.27422 z"
       transform="scale(-1,1)"
       inkscape:label="Cor dos Olhos"
       sodipodi:insensitive="true" /><path
       id="path162474"
       style="display:inline;opacity:1;fill:#e6e6e6;fill-opacity:1;stroke:none;stroke-width:0.264583;stroke-opacity:0.341176"
       d="m 117.13704,138.48354 a 1.4499372,1.6487188 0 0 0 -1.45004,1.64899 1.4499372,1.6487188 0 0 0 1.45004,1.64848 1.4499372,1.6487188 0 0 0 1.45004,-1.64848 1.4499372,1.6487188 0 0 0 -1.45004,-1.64899 z m -26.847461,0.14107 a 1.4499372,1.6487188 0 0 0 -1.45004,1.649 1.4499372,1.6487188 0 0 0 1.45004,1.64847 1.4499372,1.6487188 0 0 0 1.450041,-1.64847 1.4499372,1.6487188 0 0 0 -1.450041,-1.649 z"
       inkscape:label="Pupilas"
       sodipodi:insensitive="true" /><path
       id="path38886-8"
       style="display:inline;opacity:0.5;fill:#8b5268;fill-opacity:1;stroke:none;stroke-width:0.264583;stroke-opacity:0.341176;filter:url(#filter71001)"
       inkscape:label="Sombra Olhos"
       d="m 94.013902,136.43457 0.740007,1.23248 c 1.105933,2.28559 0.775652,4.04413 -0.681096,6.35465 -0.798588,0.81736 -2.013491,1.238 -3.613732,1.76733 -2.388292,-0.33406 -4.157297,-1.77969 -4.974374,-3.69331 0.01957,-0.284 0.452029,-0.35764 1.848983,-0.98392 0.712181,2.01087 2.013186,3.43299 4.528922,2.05776 0.879327,-0.95259 1.389434,-1.52986 1.449524,-2.89957 -0.08733,-0.96106 -0.302926,-1.64007 -0.929659,-2.43499 z m 19.593638,0.0434 1.58181,1.28468 c -3.41157,4.86084 3.05405,8.75435 5.09892,3.39256 1.39695,0.62628 1.82942,0.69992 1.84898,0.98392 -0.81708,1.91362 -2.5866,3.35925 -4.97489,3.69331 -1.60025,-0.52933 -2.81463,-0.94946 -3.61322,-1.76682 -1.45673,-2.3105 -1.78702,-4.06957 -0.68109,-6.35516 z"
       sodipodi:insensitive="true" /><path
       id="rect855"
       style="display:inline;opacity:1;fill:#d9d1c7;fill-opacity:1;stroke-width:0.264732;stroke-opacity:0.341176"
       d="m -74.338618,160.86047 v 19.52335 h 12.104688 v -19.52335 z m -13.15992,21.76249 v 38.56716 h 13.219865 v -38.56716 z"
       transform="scale(-1,1)"
       inkscape:label="Sombra Caixa1"
       sodipodi:insensitive="true" /><path
       id="rect855-8"
       style="display:inline;opacity:1;fill:#d4c9c3;fill-opacity:1;stroke-width:0.244794;stroke-opacity:0.341176"
       d="m 62.267003,160.8615 v 19.52336 l -15.879134,-0.0155 c 4.165291,-6.52443 8.246005,-13.1066 12.599748,-19.50785 z m 12.036475,21.76146 v 38.56716 h -6.243547 c -3.654512,0.24133 -5.35592,-3.46566 -5.060156,-6.67918 v -31.88798 z"
       inkscape:label="Sombra Caixa2"
       sodipodi:insensitive="true" /></g></svg>
